<svg width="38" height="33" viewBox="0 0 38 33" fill="none" xmlns="http://www.w3.org/2000/svg">
<path d="M17.7135 5.72132L19 7.86709L20.2865 5.72132C21.8423 3.12643 24.5613 1.5 27.6364 1.5C32.425 1.5 36.5 5.69296 36.5 11C36.5 13.3248 35.4895 15.776 33.7972 18.2255C32.1136 20.6622 29.8392 22.9753 27.5165 24.9925C25.2003 27.0039 22.877 28.6858 21.1292 29.8664C20.2566 30.4557 19.5309 30.9178 19.0257 31.2312C19.0181 31.2359 19.0105 31.2406 19.0029 31.2453C18.9948 31.2402 18.9866 31.2351 18.9784 31.23C18.473 30.9142 17.747 30.4488 16.8743 29.8558C15.1259 28.6678 12.802 26.9771 10.4851 24.9594C8.16158 22.936 5.88634 20.6194 4.20218 18.1858C2.50848 15.7385 1.5 13.2995 1.5 11C1.5 5.69296 5.57502 1.5 10.3636 1.5C13.4387 1.5 16.1577 3.12643 17.7135 5.72132Z" stroke="#F44336" stroke-width="3"/>
</svg>
